<mxfile host="app.diagrams.net" agent="Mozilla/5.0 (Windows NT 10.0; Win64; x64) AppleWebKit/537.36 (KHTML, like Gecko) Chrome/132.0.0.0 Safari/537.36" version="26.0.11">
  <diagram name="Page-1" id="hBxYCWwc5Gdudbyegm-T">
    <mxGraphModel dx="1123" dy="832" grid="1" gridSize="10" guides="1" tooltips="1" connect="1" arrows="1" fold="1" page="1" pageScale="1" pageWidth="850" pageHeight="1100" math="0" shadow="0">
      <root>
        <mxCell id="0" />
        <mxCell id="1" parent="0" />
        <mxCell id="1H1YzH38t-kAMmGEh3I_-2" value="" style="rounded=0;whiteSpace=wrap;html=1;fillColor=#2e7956;" vertex="1" parent="1">
          <mxGeometry x="20" y="686" width="990" height="180" as="geometry" />
        </mxCell>
        <mxCell id="1H1YzH38t-kAMmGEh3I_-3" value="" style="rounded=0;whiteSpace=wrap;html=1;fillColor=#e5dc7b;" vertex="1" parent="1">
          <mxGeometry x="50" y="846" width="10" height="20" as="geometry" />
        </mxCell>
        <mxCell id="1H1YzH38t-kAMmGEh3I_-4" value="" style="rounded=0;whiteSpace=wrap;html=1;fillColor=#e5dc7b;" vertex="1" parent="1">
          <mxGeometry x="60" y="846" width="10" height="20" as="geometry" />
        </mxCell>
        <mxCell id="1H1YzH38t-kAMmGEh3I_-5" value="" style="rounded=0;whiteSpace=wrap;html=1;fillColor=#e5dc7b;" vertex="1" parent="1">
          <mxGeometry x="70" y="846" width="10" height="20" as="geometry" />
        </mxCell>
        <mxCell id="1H1YzH38t-kAMmGEh3I_-6" value="" style="rounded=0;whiteSpace=wrap;html=1;fillColor=#e5dc7b;" vertex="1" parent="1">
          <mxGeometry x="80" y="846" width="10" height="20" as="geometry" />
        </mxCell>
        <mxCell id="1H1YzH38t-kAMmGEh3I_-7" value="" style="rounded=0;whiteSpace=wrap;html=1;fillColor=#e5dc7b;" vertex="1" parent="1">
          <mxGeometry x="90" y="846" width="10" height="20" as="geometry" />
        </mxCell>
        <mxCell id="1H1YzH38t-kAMmGEh3I_-8" value="" style="rounded=0;whiteSpace=wrap;html=1;fillColor=#e5dc7b;" vertex="1" parent="1">
          <mxGeometry x="100" y="846" width="10" height="20" as="geometry" />
        </mxCell>
        <mxCell id="1H1YzH38t-kAMmGEh3I_-9" value="" style="rounded=0;whiteSpace=wrap;html=1;fillColor=#e5dc7b;" vertex="1" parent="1">
          <mxGeometry x="110" y="846" width="10" height="20" as="geometry" />
        </mxCell>
        <mxCell id="1H1YzH38t-kAMmGEh3I_-10" value="" style="rounded=0;whiteSpace=wrap;html=1;fillColor=#e5dc7b;" vertex="1" parent="1">
          <mxGeometry x="120" y="846" width="10" height="20" as="geometry" />
        </mxCell>
        <mxCell id="1H1YzH38t-kAMmGEh3I_-11" value="" style="rounded=0;whiteSpace=wrap;html=1;fillColor=#e5dc7b;" vertex="1" parent="1">
          <mxGeometry x="130" y="846" width="10" height="20" as="geometry" />
        </mxCell>
        <mxCell id="1H1YzH38t-kAMmGEh3I_-12" value="" style="rounded=0;whiteSpace=wrap;html=1;fillColor=#e5dc7b;" vertex="1" parent="1">
          <mxGeometry x="140" y="846" width="10" height="20" as="geometry" />
        </mxCell>
        <mxCell id="1H1YzH38t-kAMmGEh3I_-13" value="" style="rounded=0;whiteSpace=wrap;html=1;fillColor=#e5dc7b;" vertex="1" parent="1">
          <mxGeometry x="150" y="846" width="10" height="20" as="geometry" />
        </mxCell>
        <mxCell id="1H1YzH38t-kAMmGEh3I_-14" value="" style="rounded=0;whiteSpace=wrap;html=1;fillColor=#e5dc7b;" vertex="1" parent="1">
          <mxGeometry x="160" y="846" width="10" height="20" as="geometry" />
        </mxCell>
        <mxCell id="1H1YzH38t-kAMmGEh3I_-15" value="" style="rounded=0;whiteSpace=wrap;html=1;fillColor=#e5dc7b;" vertex="1" parent="1">
          <mxGeometry x="170" y="846" width="10" height="20" as="geometry" />
        </mxCell>
        <mxCell id="1H1YzH38t-kAMmGEh3I_-16" value="" style="rounded=0;whiteSpace=wrap;html=1;fillColor=#e5dc7b;" vertex="1" parent="1">
          <mxGeometry x="180" y="846" width="10" height="20" as="geometry" />
        </mxCell>
        <mxCell id="1H1YzH38t-kAMmGEh3I_-17" value="" style="rounded=0;whiteSpace=wrap;html=1;fillColor=#e5dc7b;" vertex="1" parent="1">
          <mxGeometry x="190" y="846" width="10" height="20" as="geometry" />
        </mxCell>
        <mxCell id="1H1YzH38t-kAMmGEh3I_-18" value="" style="rounded=0;whiteSpace=wrap;html=1;fillColor=#e5dc7b;" vertex="1" parent="1">
          <mxGeometry x="200" y="846" width="10" height="20" as="geometry" />
        </mxCell>
        <mxCell id="1H1YzH38t-kAMmGEh3I_-19" value="" style="rounded=0;whiteSpace=wrap;html=1;fillColor=#e5dc7b;" vertex="1" parent="1">
          <mxGeometry x="210" y="846" width="10" height="20" as="geometry" />
        </mxCell>
        <mxCell id="1H1YzH38t-kAMmGEh3I_-20" value="" style="rounded=0;whiteSpace=wrap;html=1;fillColor=#e5dc7b;" vertex="1" parent="1">
          <mxGeometry x="220" y="846" width="10" height="20" as="geometry" />
        </mxCell>
        <mxCell id="1H1YzH38t-kAMmGEh3I_-21" value="" style="rounded=0;whiteSpace=wrap;html=1;fillColor=#e5dc7b;" vertex="1" parent="1">
          <mxGeometry x="230" y="846" width="10" height="20" as="geometry" />
        </mxCell>
        <mxCell id="1H1YzH38t-kAMmGEh3I_-22" value="" style="rounded=0;whiteSpace=wrap;html=1;fillColor=#e5dc7b;" vertex="1" parent="1">
          <mxGeometry x="240" y="846" width="10" height="20" as="geometry" />
        </mxCell>
        <mxCell id="1H1YzH38t-kAMmGEh3I_-23" value="" style="rounded=0;whiteSpace=wrap;html=1;fillColor=#e5dc7b;" vertex="1" parent="1">
          <mxGeometry x="250" y="846" width="10" height="20" as="geometry" />
        </mxCell>
        <mxCell id="1H1YzH38t-kAMmGEh3I_-24" value="" style="rounded=0;whiteSpace=wrap;html=1;fillColor=#e5dc7b;" vertex="1" parent="1">
          <mxGeometry x="260" y="846" width="10" height="20" as="geometry" />
        </mxCell>
        <mxCell id="1H1YzH38t-kAMmGEh3I_-25" value="" style="rounded=0;whiteSpace=wrap;html=1;fillColor=#e5dc7b;" vertex="1" parent="1">
          <mxGeometry x="270" y="846" width="10" height="20" as="geometry" />
        </mxCell>
        <mxCell id="1H1YzH38t-kAMmGEh3I_-26" value="" style="rounded=0;whiteSpace=wrap;html=1;fillColor=#e5dc7b;" vertex="1" parent="1">
          <mxGeometry x="280" y="846" width="10" height="20" as="geometry" />
        </mxCell>
        <mxCell id="1H1YzH38t-kAMmGEh3I_-27" value="" style="rounded=0;whiteSpace=wrap;html=1;fillColor=#e5dc7b;" vertex="1" parent="1">
          <mxGeometry x="290" y="846" width="10" height="20" as="geometry" />
        </mxCell>
        <mxCell id="1H1YzH38t-kAMmGEh3I_-28" value="" style="rounded=0;whiteSpace=wrap;html=1;fillColor=#e5dc7b;" vertex="1" parent="1">
          <mxGeometry x="300" y="846" width="10" height="20" as="geometry" />
        </mxCell>
        <mxCell id="1H1YzH38t-kAMmGEh3I_-29" value="" style="rounded=0;whiteSpace=wrap;html=1;fillColor=#e5dc7b;" vertex="1" parent="1">
          <mxGeometry x="310" y="846" width="10" height="20" as="geometry" />
        </mxCell>
        <mxCell id="1H1YzH38t-kAMmGEh3I_-30" value="" style="rounded=0;whiteSpace=wrap;html=1;fillColor=#e5dc7b;" vertex="1" parent="1">
          <mxGeometry x="320" y="846" width="10" height="20" as="geometry" />
        </mxCell>
        <mxCell id="1H1YzH38t-kAMmGEh3I_-31" value="" style="rounded=0;whiteSpace=wrap;html=1;fillColor=#e5dc7b;" vertex="1" parent="1">
          <mxGeometry x="330" y="846" width="10" height="20" as="geometry" />
        </mxCell>
        <mxCell id="1H1YzH38t-kAMmGEh3I_-32" value="" style="rounded=0;whiteSpace=wrap;html=1;fillColor=#e5dc7b;" vertex="1" parent="1">
          <mxGeometry x="340" y="846" width="10" height="20" as="geometry" />
        </mxCell>
        <mxCell id="1H1YzH38t-kAMmGEh3I_-33" value="" style="rounded=0;whiteSpace=wrap;html=1;fillColor=#e5dc7b;" vertex="1" parent="1">
          <mxGeometry x="350" y="846" width="10" height="20" as="geometry" />
        </mxCell>
        <mxCell id="1H1YzH38t-kAMmGEh3I_-34" value="" style="rounded=0;whiteSpace=wrap;html=1;fillColor=#e5dc7b;" vertex="1" parent="1">
          <mxGeometry x="360" y="846" width="10" height="20" as="geometry" />
        </mxCell>
        <mxCell id="1H1YzH38t-kAMmGEh3I_-35" value="" style="rounded=0;whiteSpace=wrap;html=1;fillColor=#e5dc7b;" vertex="1" parent="1">
          <mxGeometry x="370" y="846" width="10" height="20" as="geometry" />
        </mxCell>
        <mxCell id="1H1YzH38t-kAMmGEh3I_-36" value="" style="rounded=0;whiteSpace=wrap;html=1;fillColor=#e5dc7b;" vertex="1" parent="1">
          <mxGeometry x="380" y="846" width="10" height="20" as="geometry" />
        </mxCell>
        <mxCell id="1H1YzH38t-kAMmGEh3I_-37" value="" style="rounded=0;whiteSpace=wrap;html=1;fillColor=#e5dc7b;" vertex="1" parent="1">
          <mxGeometry x="390" y="846" width="10" height="20" as="geometry" />
        </mxCell>
        <mxCell id="1H1YzH38t-kAMmGEh3I_-38" value="" style="rounded=0;whiteSpace=wrap;html=1;fillColor=#e5dc7b;" vertex="1" parent="1">
          <mxGeometry x="400" y="846" width="10" height="20" as="geometry" />
        </mxCell>
        <mxCell id="1H1YzH38t-kAMmGEh3I_-39" value="" style="rounded=0;whiteSpace=wrap;html=1;fillColor=#e5dc7b;" vertex="1" parent="1">
          <mxGeometry x="410" y="846" width="10" height="20" as="geometry" />
        </mxCell>
        <mxCell id="1H1YzH38t-kAMmGEh3I_-40" value="" style="rounded=0;whiteSpace=wrap;html=1;fillColor=#e5dc7b;" vertex="1" parent="1">
          <mxGeometry x="420" y="846" width="10" height="20" as="geometry" />
        </mxCell>
        <mxCell id="1H1YzH38t-kAMmGEh3I_-41" value="" style="rounded=0;whiteSpace=wrap;html=1;fillColor=#e5dc7b;" vertex="1" parent="1">
          <mxGeometry x="600" y="846" width="10" height="20" as="geometry" />
        </mxCell>
        <mxCell id="1H1YzH38t-kAMmGEh3I_-42" value="" style="rounded=0;whiteSpace=wrap;html=1;fillColor=#e5dc7b;" vertex="1" parent="1">
          <mxGeometry x="610" y="846" width="10" height="20" as="geometry" />
        </mxCell>
        <mxCell id="1H1YzH38t-kAMmGEh3I_-43" value="" style="rounded=0;whiteSpace=wrap;html=1;fillColor=#e5dc7b;" vertex="1" parent="1">
          <mxGeometry x="620" y="846" width="10" height="20" as="geometry" />
        </mxCell>
        <mxCell id="1H1YzH38t-kAMmGEh3I_-44" value="" style="rounded=0;whiteSpace=wrap;html=1;fillColor=#e5dc7b;" vertex="1" parent="1">
          <mxGeometry x="630" y="846" width="10" height="20" as="geometry" />
        </mxCell>
        <mxCell id="1H1YzH38t-kAMmGEh3I_-45" value="" style="rounded=0;whiteSpace=wrap;html=1;fillColor=#e5dc7b;" vertex="1" parent="1">
          <mxGeometry x="640" y="846" width="10" height="20" as="geometry" />
        </mxCell>
        <mxCell id="1H1YzH38t-kAMmGEh3I_-46" value="" style="rounded=0;whiteSpace=wrap;html=1;fillColor=#e5dc7b;" vertex="1" parent="1">
          <mxGeometry x="650" y="846" width="10" height="20" as="geometry" />
        </mxCell>
        <mxCell id="1H1YzH38t-kAMmGEh3I_-47" value="" style="rounded=0;whiteSpace=wrap;html=1;fillColor=#e5dc7b;" vertex="1" parent="1">
          <mxGeometry x="660" y="846" width="10" height="20" as="geometry" />
        </mxCell>
        <mxCell id="1H1YzH38t-kAMmGEh3I_-48" value="" style="rounded=0;whiteSpace=wrap;html=1;fillColor=#e5dc7b;" vertex="1" parent="1">
          <mxGeometry x="670" y="846" width="10" height="20" as="geometry" />
        </mxCell>
        <mxCell id="1H1YzH38t-kAMmGEh3I_-49" value="" style="rounded=0;whiteSpace=wrap;html=1;fillColor=#e5dc7b;" vertex="1" parent="1">
          <mxGeometry x="680" y="846" width="10" height="20" as="geometry" />
        </mxCell>
        <mxCell id="1H1YzH38t-kAMmGEh3I_-50" value="" style="rounded=0;whiteSpace=wrap;html=1;fillColor=#e5dc7b;" vertex="1" parent="1">
          <mxGeometry x="690" y="846" width="10" height="20" as="geometry" />
        </mxCell>
        <mxCell id="1H1YzH38t-kAMmGEh3I_-51" value="" style="rounded=0;whiteSpace=wrap;html=1;fillColor=#e5dc7b;" vertex="1" parent="1">
          <mxGeometry x="700" y="846" width="10" height="20" as="geometry" />
        </mxCell>
        <mxCell id="1H1YzH38t-kAMmGEh3I_-52" value="" style="rounded=0;whiteSpace=wrap;html=1;fillColor=#e5dc7b;" vertex="1" parent="1">
          <mxGeometry x="710" y="846" width="10" height="20" as="geometry" />
        </mxCell>
        <mxCell id="1H1YzH38t-kAMmGEh3I_-53" value="" style="rounded=0;whiteSpace=wrap;html=1;fillColor=#e5dc7b;" vertex="1" parent="1">
          <mxGeometry x="720" y="846" width="10" height="20" as="geometry" />
        </mxCell>
        <mxCell id="1H1YzH38t-kAMmGEh3I_-54" value="" style="rounded=0;whiteSpace=wrap;html=1;fillColor=#e5dc7b;" vertex="1" parent="1">
          <mxGeometry x="730" y="846" width="10" height="20" as="geometry" />
        </mxCell>
        <mxCell id="1H1YzH38t-kAMmGEh3I_-55" value="" style="rounded=0;whiteSpace=wrap;html=1;fillColor=#e5dc7b;" vertex="1" parent="1">
          <mxGeometry x="740" y="846" width="10" height="20" as="geometry" />
        </mxCell>
        <mxCell id="1H1YzH38t-kAMmGEh3I_-56" value="" style="rounded=0;whiteSpace=wrap;html=1;fillColor=#e5dc7b;" vertex="1" parent="1">
          <mxGeometry x="750" y="846" width="10" height="20" as="geometry" />
        </mxCell>
        <mxCell id="1H1YzH38t-kAMmGEh3I_-57" value="" style="rounded=0;whiteSpace=wrap;html=1;fillColor=#e5dc7b;" vertex="1" parent="1">
          <mxGeometry x="760" y="846" width="10" height="20" as="geometry" />
        </mxCell>
        <mxCell id="1H1YzH38t-kAMmGEh3I_-58" value="" style="rounded=0;whiteSpace=wrap;html=1;fillColor=#e5dc7b;" vertex="1" parent="1">
          <mxGeometry x="770" y="846" width="10" height="20" as="geometry" />
        </mxCell>
        <mxCell id="1H1YzH38t-kAMmGEh3I_-59" value="" style="rounded=0;whiteSpace=wrap;html=1;fillColor=#e5dc7b;" vertex="1" parent="1">
          <mxGeometry x="780" y="846" width="10" height="20" as="geometry" />
        </mxCell>
        <mxCell id="1H1YzH38t-kAMmGEh3I_-60" value="" style="rounded=0;whiteSpace=wrap;html=1;fillColor=#e5dc7b;" vertex="1" parent="1">
          <mxGeometry x="790" y="846" width="10" height="20" as="geometry" />
        </mxCell>
        <mxCell id="1H1YzH38t-kAMmGEh3I_-61" value="" style="rounded=0;whiteSpace=wrap;html=1;fillColor=#e5dc7b;" vertex="1" parent="1">
          <mxGeometry x="800" y="846" width="10" height="20" as="geometry" />
        </mxCell>
        <mxCell id="1H1YzH38t-kAMmGEh3I_-62" value="" style="rounded=0;whiteSpace=wrap;html=1;fillColor=#e5dc7b;" vertex="1" parent="1">
          <mxGeometry x="810" y="846" width="10" height="20" as="geometry" />
        </mxCell>
        <mxCell id="1H1YzH38t-kAMmGEh3I_-63" value="" style="rounded=0;whiteSpace=wrap;html=1;fillColor=#e5dc7b;" vertex="1" parent="1">
          <mxGeometry x="820" y="846" width="10" height="20" as="geometry" />
        </mxCell>
        <mxCell id="1H1YzH38t-kAMmGEh3I_-64" value="" style="rounded=0;whiteSpace=wrap;html=1;fillColor=#e5dc7b;" vertex="1" parent="1">
          <mxGeometry x="830" y="846" width="10" height="20" as="geometry" />
        </mxCell>
        <mxCell id="1H1YzH38t-kAMmGEh3I_-65" value="" style="rounded=0;whiteSpace=wrap;html=1;fillColor=#e5dc7b;" vertex="1" parent="1">
          <mxGeometry x="840" y="846" width="10" height="20" as="geometry" />
        </mxCell>
        <mxCell id="1H1YzH38t-kAMmGEh3I_-66" value="" style="rounded=0;whiteSpace=wrap;html=1;fillColor=#e5dc7b;" vertex="1" parent="1">
          <mxGeometry x="850" y="846" width="10" height="20" as="geometry" />
        </mxCell>
        <mxCell id="1H1YzH38t-kAMmGEh3I_-67" value="" style="rounded=0;whiteSpace=wrap;html=1;fillColor=#e5dc7b;" vertex="1" parent="1">
          <mxGeometry x="860" y="846" width="10" height="20" as="geometry" />
        </mxCell>
        <mxCell id="1H1YzH38t-kAMmGEh3I_-68" value="" style="rounded=0;whiteSpace=wrap;html=1;fillColor=#e5dc7b;" vertex="1" parent="1">
          <mxGeometry x="870" y="846" width="10" height="20" as="geometry" />
        </mxCell>
        <mxCell id="1H1YzH38t-kAMmGEh3I_-69" value="" style="rounded=0;whiteSpace=wrap;html=1;fillColor=#e5dc7b;" vertex="1" parent="1">
          <mxGeometry x="880" y="846" width="10" height="20" as="geometry" />
        </mxCell>
        <mxCell id="1H1YzH38t-kAMmGEh3I_-70" value="" style="rounded=0;whiteSpace=wrap;html=1;fillColor=#e5dc7b;" vertex="1" parent="1">
          <mxGeometry x="890" y="846" width="10" height="20" as="geometry" />
        </mxCell>
        <mxCell id="1H1YzH38t-kAMmGEh3I_-71" value="" style="rounded=0;whiteSpace=wrap;html=1;fillColor=#e5dc7b;" vertex="1" parent="1">
          <mxGeometry x="900" y="846" width="10" height="20" as="geometry" />
        </mxCell>
        <mxCell id="1H1YzH38t-kAMmGEh3I_-72" value="" style="rounded=0;whiteSpace=wrap;html=1;fillColor=#e5dc7b;" vertex="1" parent="1">
          <mxGeometry x="910" y="846" width="10" height="20" as="geometry" />
        </mxCell>
        <mxCell id="1H1YzH38t-kAMmGEh3I_-73" value="" style="rounded=0;whiteSpace=wrap;html=1;fillColor=#e5dc7b;" vertex="1" parent="1">
          <mxGeometry x="920" y="846" width="10" height="20" as="geometry" />
        </mxCell>
        <mxCell id="1H1YzH38t-kAMmGEh3I_-74" value="" style="rounded=0;whiteSpace=wrap;html=1;fillColor=#e5dc7b;" vertex="1" parent="1">
          <mxGeometry x="930" y="846" width="10" height="20" as="geometry" />
        </mxCell>
        <mxCell id="1H1YzH38t-kAMmGEh3I_-75" value="" style="rounded=0;whiteSpace=wrap;html=1;fillColor=#e5dc7b;" vertex="1" parent="1">
          <mxGeometry x="940" y="846" width="10" height="20" as="geometry" />
        </mxCell>
        <mxCell id="1H1YzH38t-kAMmGEh3I_-76" value="" style="rounded=0;whiteSpace=wrap;html=1;fillColor=#e5dc7b;" vertex="1" parent="1">
          <mxGeometry x="950" y="846" width="10" height="20" as="geometry" />
        </mxCell>
        <mxCell id="1H1YzH38t-kAMmGEh3I_-77" value="" style="rounded=0;whiteSpace=wrap;html=1;fillColor=#e5dc7b;" vertex="1" parent="1">
          <mxGeometry x="960" y="846" width="10" height="20" as="geometry" />
        </mxCell>
        <mxCell id="1H1YzH38t-kAMmGEh3I_-78" value="" style="rounded=0;whiteSpace=wrap;html=1;fillColor=#e5dc7b;" vertex="1" parent="1">
          <mxGeometry x="970" y="846" width="10" height="20" as="geometry" />
        </mxCell>
        <mxCell id="1H1YzH38t-kAMmGEh3I_-79" value="" style="rounded=0;whiteSpace=wrap;html=1;fillColor=#e5dc7b;" vertex="1" parent="1">
          <mxGeometry x="980" y="846" width="10" height="20" as="geometry" />
        </mxCell>
        <mxCell id="1H1YzH38t-kAMmGEh3I_-80" value="" style="shape=or;whiteSpace=wrap;html=1;direction=north;" vertex="1" parent="1">
          <mxGeometry x="530" y="836" width="20" height="30" as="geometry" />
        </mxCell>
        <mxCell id="1H1YzH38t-kAMmGEh3I_-81" value="" style="rounded=0;whiteSpace=wrap;html=1;fillColor=#e5dc7b;" vertex="1" parent="1">
          <mxGeometry x="570" y="846" width="10" height="20" as="geometry" />
        </mxCell>
        <mxCell id="1H1YzH38t-kAMmGEh3I_-82" value="" style="rounded=0;whiteSpace=wrap;html=1;fillColor=#e5dc7b;" vertex="1" parent="1">
          <mxGeometry x="580" y="846" width="10" height="20" as="geometry" />
        </mxCell>
        <mxCell id="1H1YzH38t-kAMmGEh3I_-83" value="" style="rounded=0;whiteSpace=wrap;html=1;fillColor=#e5dc7b;" vertex="1" parent="1">
          <mxGeometry x="590" y="846" width="10" height="20" as="geometry" />
        </mxCell>
        <mxCell id="1H1YzH38t-kAMmGEh3I_-84" value="" style="rounded=0;whiteSpace=wrap;html=1;fillColor=#e5dc7b;" vertex="1" parent="1">
          <mxGeometry x="430" y="846" width="10" height="20" as="geometry" />
        </mxCell>
        <mxCell id="1H1YzH38t-kAMmGEh3I_-85" value="" style="rounded=0;whiteSpace=wrap;html=1;fillColor=#e5dc7b;" vertex="1" parent="1">
          <mxGeometry x="440" y="846" width="10" height="20" as="geometry" />
        </mxCell>
        <mxCell id="1H1YzH38t-kAMmGEh3I_-86" value="&lt;font style=&quot;font-size: 14px;&quot; color=&quot;#ababab&quot;&gt;&lt;b&gt;RCD&lt;/b&gt;&lt;/font&gt;" style="rounded=0;whiteSpace=wrap;html=1;strokeColor=#454744;fillColor=#464646;direction=south;" vertex="1" parent="1">
          <mxGeometry x="480" y="730" width="80" height="70" as="geometry" />
        </mxCell>
        <mxCell id="1H1YzH38t-kAMmGEh3I_-87" value="" style="rounded=0;whiteSpace=wrap;html=1;fillColor=#e5dc7b;" vertex="1" parent="1">
          <mxGeometry x="450" y="846" width="10" height="20" as="geometry" />
        </mxCell>
        <mxCell id="1H1YzH38t-kAMmGEh3I_-88" value="" style="rounded=0;whiteSpace=wrap;html=1;fillColor=#e5dc7b;" vertex="1" parent="1">
          <mxGeometry x="460" y="846" width="10" height="20" as="geometry" />
        </mxCell>
        <mxCell id="1H1YzH38t-kAMmGEh3I_-89" value="" style="rounded=0;whiteSpace=wrap;html=1;fillColor=#e5dc7b;" vertex="1" parent="1">
          <mxGeometry x="470" y="846" width="10" height="20" as="geometry" />
        </mxCell>
        <mxCell id="1H1YzH38t-kAMmGEh3I_-90" value="" style="rounded=0;whiteSpace=wrap;html=1;fillColor=#e5dc7b;" vertex="1" parent="1">
          <mxGeometry x="480" y="846" width="10" height="20" as="geometry" />
        </mxCell>
        <mxCell id="1H1YzH38t-kAMmGEh3I_-91" value="" style="rounded=0;whiteSpace=wrap;html=1;fillColor=#e5dc7b;" vertex="1" parent="1">
          <mxGeometry x="490" y="846" width="10" height="20" as="geometry" />
        </mxCell>
        <mxCell id="1H1YzH38t-kAMmGEh3I_-92" value="" style="rounded=0;whiteSpace=wrap;html=1;fillColor=#e5dc7b;" vertex="1" parent="1">
          <mxGeometry x="500" y="846" width="10" height="20" as="geometry" />
        </mxCell>
        <mxCell id="1H1YzH38t-kAMmGEh3I_-93" value="" style="rounded=0;whiteSpace=wrap;html=1;fillColor=#e5dc7b;" vertex="1" parent="1">
          <mxGeometry x="510" y="846" width="10" height="20" as="geometry" />
        </mxCell>
        <mxCell id="1H1YzH38t-kAMmGEh3I_-94" value="&lt;font style=&quot;font-size: 14px;&quot; color=&quot;#ababab&quot;&gt;DQ&lt;/font&gt;&lt;div style=&quot;font-size: 14px;&quot;&gt;&lt;font color=&quot;#ababab&quot;&gt;x8&lt;/font&gt;&lt;/div&gt;" style="rounded=0;whiteSpace=wrap;html=1;strokeColor=#454744;fillColor=#464646;" vertex="1" parent="1">
          <mxGeometry x="59" y="730" width="60" height="80" as="geometry" />
        </mxCell>
        <mxCell id="1H1YzH38t-kAMmGEh3I_-95" value="&lt;font style=&quot;font-size: 14px;&quot; color=&quot;#ababab&quot;&gt;DQ&lt;/font&gt;&lt;div style=&quot;font-size: 14px;&quot;&gt;&lt;font color=&quot;#ababab&quot;&gt;x8&lt;/font&gt;&lt;/div&gt;" style="rounded=0;whiteSpace=wrap;html=1;strokeColor=#454744;fillColor=#464646;" vertex="1" parent="1">
          <mxGeometry x="140" y="730" width="60" height="80" as="geometry" />
        </mxCell>
        <mxCell id="1H1YzH38t-kAMmGEh3I_-96" value="&lt;font style=&quot;font-size: 14px;&quot; color=&quot;#ababab&quot;&gt;DQ&lt;/font&gt;&lt;div style=&quot;font-size: 14px;&quot;&gt;&lt;font color=&quot;#ababab&quot;&gt;x8&lt;/font&gt;&lt;/div&gt;" style="rounded=0;whiteSpace=wrap;html=1;strokeColor=#454744;fillColor=#464646;" vertex="1" parent="1">
          <mxGeometry x="220" y="730" width="60" height="80" as="geometry" />
        </mxCell>
        <mxCell id="1H1YzH38t-kAMmGEh3I_-97" value="&lt;font style=&quot;font-size: 14px;&quot; color=&quot;#ababab&quot;&gt;DQ&lt;/font&gt;&lt;div style=&quot;font-size: 14px;&quot;&gt;&lt;font color=&quot;#ababab&quot;&gt;x8&lt;/font&gt;&lt;/div&gt;" style="rounded=0;whiteSpace=wrap;html=1;strokeColor=#454744;fillColor=#464646;" vertex="1" parent="1">
          <mxGeometry x="300" y="730" width="60" height="80" as="geometry" />
        </mxCell>
        <mxCell id="1H1YzH38t-kAMmGEh3I_-98" value="&lt;font style=&quot;font-size: 14px;&quot; color=&quot;#ababab&quot;&gt;ECC&lt;/font&gt;&lt;div style=&quot;font-size: 14px;&quot;&gt;&lt;font color=&quot;#ababab&quot;&gt;x8&lt;/font&gt;&lt;/div&gt;" style="rounded=0;whiteSpace=wrap;html=1;strokeColor=#454744;fillColor=#464646;" vertex="1" parent="1">
          <mxGeometry x="380" y="730" width="60" height="80" as="geometry" />
        </mxCell>
        <mxCell id="1H1YzH38t-kAMmGEh3I_-99" value="&lt;font style=&quot;font-size: 14px;&quot; color=&quot;#ababab&quot;&gt;ECC&lt;/font&gt;&lt;div style=&quot;font-size: 14px;&quot;&gt;&lt;font color=&quot;#ababab&quot;&gt;x8&lt;/font&gt;&lt;/div&gt;" style="rounded=0;whiteSpace=wrap;html=1;strokeColor=#454744;fillColor=#464646;" vertex="1" parent="1">
          <mxGeometry x="600" y="730" width="60" height="80" as="geometry" />
        </mxCell>
        <mxCell id="1H1YzH38t-kAMmGEh3I_-100" value="&lt;font style=&quot;font-size: 14px;&quot; color=&quot;#ababab&quot;&gt;DQ&lt;/font&gt;&lt;div style=&quot;font-size: 14px;&quot;&gt;&lt;font color=&quot;#ababab&quot;&gt;x8&lt;/font&gt;&lt;/div&gt;" style="rounded=0;whiteSpace=wrap;html=1;strokeColor=#454744;fillColor=#464646;" vertex="1" parent="1">
          <mxGeometry x="680" y="730" width="60" height="80" as="geometry" />
        </mxCell>
        <mxCell id="1H1YzH38t-kAMmGEh3I_-101" value="&lt;font style=&quot;font-size: 14px;&quot; color=&quot;#ababab&quot;&gt;DQ&lt;/font&gt;&lt;div style=&quot;font-size: 14px;&quot;&gt;&lt;font color=&quot;#ababab&quot;&gt;x8&lt;/font&gt;&lt;/div&gt;" style="rounded=0;whiteSpace=wrap;html=1;strokeColor=#454744;fillColor=#464646;" vertex="1" parent="1">
          <mxGeometry x="760" y="730" width="60" height="80" as="geometry" />
        </mxCell>
        <mxCell id="1H1YzH38t-kAMmGEh3I_-102" value="&lt;font style=&quot;font-size: 14px;&quot; color=&quot;#ababab&quot;&gt;DQ&lt;/font&gt;&lt;div style=&quot;font-size: 14px;&quot;&gt;&lt;font color=&quot;#ababab&quot;&gt;x8&lt;/font&gt;&lt;/div&gt;" style="rounded=0;whiteSpace=wrap;html=1;strokeColor=#454744;fillColor=#464646;" vertex="1" parent="1">
          <mxGeometry x="840" y="730" width="60" height="80" as="geometry" />
        </mxCell>
        <mxCell id="1H1YzH38t-kAMmGEh3I_-103" value="&lt;font style=&quot;font-size: 14px;&quot; color=&quot;#ababab&quot;&gt;DQ&lt;/font&gt;&lt;div style=&quot;font-size: 14px;&quot;&gt;&lt;font color=&quot;#ababab&quot;&gt;x8&lt;/font&gt;&lt;/div&gt;" style="rounded=0;whiteSpace=wrap;html=1;strokeColor=#454744;fillColor=#464646;" vertex="1" parent="1">
          <mxGeometry x="921" y="730" width="60" height="80" as="geometry" />
        </mxCell>
        <mxCell id="1H1YzH38t-kAMmGEh3I_-104" value="&lt;font color=&quot;#ababab&quot;&gt;&lt;span&gt;TS0&lt;/span&gt;&lt;/font&gt;" style="rounded=0;whiteSpace=wrap;html=1;strokeColor=#454744;fillColor=#464646;fontSize=8;" vertex="1" parent="1">
          <mxGeometry x="122" y="765" width="15" height="10" as="geometry" />
        </mxCell>
        <mxCell id="1H1YzH38t-kAMmGEh3I_-106" value="" style="rounded=0;whiteSpace=wrap;html=1;fillColor=#2e7956;" vertex="1" parent="1">
          <mxGeometry x="20" y="890" width="990" height="180" as="geometry" />
        </mxCell>
        <mxCell id="1H1YzH38t-kAMmGEh3I_-107" value="" style="rounded=0;whiteSpace=wrap;html=1;fillColor=#e5dc7b;" vertex="1" parent="1">
          <mxGeometry x="50" y="890" width="10" height="20" as="geometry" />
        </mxCell>
        <mxCell id="1H1YzH38t-kAMmGEh3I_-108" value="" style="rounded=0;whiteSpace=wrap;html=1;fillColor=#e5dc7b;" vertex="1" parent="1">
          <mxGeometry x="60" y="890" width="10" height="20" as="geometry" />
        </mxCell>
        <mxCell id="1H1YzH38t-kAMmGEh3I_-109" value="" style="rounded=0;whiteSpace=wrap;html=1;fillColor=#e5dc7b;" vertex="1" parent="1">
          <mxGeometry x="70" y="890" width="10" height="20" as="geometry" />
        </mxCell>
        <mxCell id="1H1YzH38t-kAMmGEh3I_-110" value="" style="rounded=0;whiteSpace=wrap;html=1;fillColor=#e5dc7b;" vertex="1" parent="1">
          <mxGeometry x="80" y="890" width="10" height="20" as="geometry" />
        </mxCell>
        <mxCell id="1H1YzH38t-kAMmGEh3I_-111" value="" style="rounded=0;whiteSpace=wrap;html=1;fillColor=#e5dc7b;" vertex="1" parent="1">
          <mxGeometry x="90" y="890" width="10" height="20" as="geometry" />
        </mxCell>
        <mxCell id="1H1YzH38t-kAMmGEh3I_-112" value="" style="rounded=0;whiteSpace=wrap;html=1;fillColor=#e5dc7b;" vertex="1" parent="1">
          <mxGeometry x="100" y="890" width="10" height="20" as="geometry" />
        </mxCell>
        <mxCell id="1H1YzH38t-kAMmGEh3I_-113" value="" style="rounded=0;whiteSpace=wrap;html=1;fillColor=#e5dc7b;" vertex="1" parent="1">
          <mxGeometry x="110" y="890" width="10" height="20" as="geometry" />
        </mxCell>
        <mxCell id="1H1YzH38t-kAMmGEh3I_-114" value="" style="rounded=0;whiteSpace=wrap;html=1;fillColor=#e5dc7b;" vertex="1" parent="1">
          <mxGeometry x="120" y="890" width="10" height="20" as="geometry" />
        </mxCell>
        <mxCell id="1H1YzH38t-kAMmGEh3I_-115" value="" style="rounded=0;whiteSpace=wrap;html=1;fillColor=#e5dc7b;" vertex="1" parent="1">
          <mxGeometry x="130" y="890" width="10" height="20" as="geometry" />
        </mxCell>
        <mxCell id="1H1YzH38t-kAMmGEh3I_-116" value="" style="rounded=0;whiteSpace=wrap;html=1;fillColor=#e5dc7b;" vertex="1" parent="1">
          <mxGeometry x="140" y="890" width="10" height="20" as="geometry" />
        </mxCell>
        <mxCell id="1H1YzH38t-kAMmGEh3I_-117" value="" style="rounded=0;whiteSpace=wrap;html=1;fillColor=#e5dc7b;" vertex="1" parent="1">
          <mxGeometry x="150" y="890" width="10" height="20" as="geometry" />
        </mxCell>
        <mxCell id="1H1YzH38t-kAMmGEh3I_-118" value="" style="rounded=0;whiteSpace=wrap;html=1;fillColor=#e5dc7b;" vertex="1" parent="1">
          <mxGeometry x="160" y="890" width="10" height="20" as="geometry" />
        </mxCell>
        <mxCell id="1H1YzH38t-kAMmGEh3I_-119" value="" style="rounded=0;whiteSpace=wrap;html=1;fillColor=#e5dc7b;" vertex="1" parent="1">
          <mxGeometry x="170" y="890" width="10" height="20" as="geometry" />
        </mxCell>
        <mxCell id="1H1YzH38t-kAMmGEh3I_-120" value="" style="rounded=0;whiteSpace=wrap;html=1;fillColor=#e5dc7b;" vertex="1" parent="1">
          <mxGeometry x="180" y="890" width="10" height="20" as="geometry" />
        </mxCell>
        <mxCell id="1H1YzH38t-kAMmGEh3I_-121" value="" style="rounded=0;whiteSpace=wrap;html=1;fillColor=#e5dc7b;" vertex="1" parent="1">
          <mxGeometry x="190" y="890" width="10" height="20" as="geometry" />
        </mxCell>
        <mxCell id="1H1YzH38t-kAMmGEh3I_-122" value="" style="rounded=0;whiteSpace=wrap;html=1;fillColor=#e5dc7b;" vertex="1" parent="1">
          <mxGeometry x="200" y="890" width="10" height="20" as="geometry" />
        </mxCell>
        <mxCell id="1H1YzH38t-kAMmGEh3I_-123" value="" style="rounded=0;whiteSpace=wrap;html=1;fillColor=#e5dc7b;" vertex="1" parent="1">
          <mxGeometry x="210" y="890" width="10" height="20" as="geometry" />
        </mxCell>
        <mxCell id="1H1YzH38t-kAMmGEh3I_-124" value="" style="rounded=0;whiteSpace=wrap;html=1;fillColor=#e5dc7b;" vertex="1" parent="1">
          <mxGeometry x="220" y="890" width="10" height="20" as="geometry" />
        </mxCell>
        <mxCell id="1H1YzH38t-kAMmGEh3I_-125" value="" style="rounded=0;whiteSpace=wrap;html=1;fillColor=#e5dc7b;" vertex="1" parent="1">
          <mxGeometry x="230" y="890" width="10" height="20" as="geometry" />
        </mxCell>
        <mxCell id="1H1YzH38t-kAMmGEh3I_-126" value="" style="rounded=0;whiteSpace=wrap;html=1;fillColor=#e5dc7b;" vertex="1" parent="1">
          <mxGeometry x="240" y="890" width="10" height="20" as="geometry" />
        </mxCell>
        <mxCell id="1H1YzH38t-kAMmGEh3I_-127" value="" style="rounded=0;whiteSpace=wrap;html=1;fillColor=#e5dc7b;" vertex="1" parent="1">
          <mxGeometry x="250" y="890" width="10" height="20" as="geometry" />
        </mxCell>
        <mxCell id="1H1YzH38t-kAMmGEh3I_-128" value="" style="rounded=0;whiteSpace=wrap;html=1;fillColor=#e5dc7b;" vertex="1" parent="1">
          <mxGeometry x="260" y="890" width="10" height="20" as="geometry" />
        </mxCell>
        <mxCell id="1H1YzH38t-kAMmGEh3I_-129" value="" style="rounded=0;whiteSpace=wrap;html=1;fillColor=#e5dc7b;" vertex="1" parent="1">
          <mxGeometry x="270" y="890" width="10" height="20" as="geometry" />
        </mxCell>
        <mxCell id="1H1YzH38t-kAMmGEh3I_-130" value="" style="rounded=0;whiteSpace=wrap;html=1;fillColor=#e5dc7b;" vertex="1" parent="1">
          <mxGeometry x="280" y="890" width="10" height="20" as="geometry" />
        </mxCell>
        <mxCell id="1H1YzH38t-kAMmGEh3I_-131" value="" style="rounded=0;whiteSpace=wrap;html=1;fillColor=#e5dc7b;" vertex="1" parent="1">
          <mxGeometry x="290" y="890" width="10" height="20" as="geometry" />
        </mxCell>
        <mxCell id="1H1YzH38t-kAMmGEh3I_-132" value="" style="rounded=0;whiteSpace=wrap;html=1;fillColor=#e5dc7b;" vertex="1" parent="1">
          <mxGeometry x="300" y="890" width="10" height="20" as="geometry" />
        </mxCell>
        <mxCell id="1H1YzH38t-kAMmGEh3I_-133" value="" style="rounded=0;whiteSpace=wrap;html=1;fillColor=#e5dc7b;" vertex="1" parent="1">
          <mxGeometry x="310" y="890" width="10" height="20" as="geometry" />
        </mxCell>
        <mxCell id="1H1YzH38t-kAMmGEh3I_-134" value="" style="rounded=0;whiteSpace=wrap;html=1;fillColor=#e5dc7b;" vertex="1" parent="1">
          <mxGeometry x="320" y="890" width="10" height="20" as="geometry" />
        </mxCell>
        <mxCell id="1H1YzH38t-kAMmGEh3I_-135" value="" style="rounded=0;whiteSpace=wrap;html=1;fillColor=#e5dc7b;" vertex="1" parent="1">
          <mxGeometry x="330" y="890" width="10" height="20" as="geometry" />
        </mxCell>
        <mxCell id="1H1YzH38t-kAMmGEh3I_-136" value="" style="rounded=0;whiteSpace=wrap;html=1;fillColor=#e5dc7b;" vertex="1" parent="1">
          <mxGeometry x="340" y="890" width="10" height="20" as="geometry" />
        </mxCell>
        <mxCell id="1H1YzH38t-kAMmGEh3I_-137" value="" style="rounded=0;whiteSpace=wrap;html=1;fillColor=#e5dc7b;" vertex="1" parent="1">
          <mxGeometry x="350" y="890" width="10" height="20" as="geometry" />
        </mxCell>
        <mxCell id="1H1YzH38t-kAMmGEh3I_-138" value="" style="rounded=0;whiteSpace=wrap;html=1;fillColor=#e5dc7b;" vertex="1" parent="1">
          <mxGeometry x="360" y="890" width="10" height="20" as="geometry" />
        </mxCell>
        <mxCell id="1H1YzH38t-kAMmGEh3I_-139" value="" style="rounded=0;whiteSpace=wrap;html=1;fillColor=#e5dc7b;" vertex="1" parent="1">
          <mxGeometry x="370" y="890" width="10" height="20" as="geometry" />
        </mxCell>
        <mxCell id="1H1YzH38t-kAMmGEh3I_-140" value="" style="rounded=0;whiteSpace=wrap;html=1;fillColor=#e5dc7b;" vertex="1" parent="1">
          <mxGeometry x="380" y="890" width="10" height="20" as="geometry" />
        </mxCell>
        <mxCell id="1H1YzH38t-kAMmGEh3I_-141" value="" style="rounded=0;whiteSpace=wrap;html=1;fillColor=#e5dc7b;" vertex="1" parent="1">
          <mxGeometry x="390" y="890" width="10" height="20" as="geometry" />
        </mxCell>
        <mxCell id="1H1YzH38t-kAMmGEh3I_-142" value="" style="rounded=0;whiteSpace=wrap;html=1;fillColor=#e5dc7b;" vertex="1" parent="1">
          <mxGeometry x="400" y="890" width="10" height="20" as="geometry" />
        </mxCell>
        <mxCell id="1H1YzH38t-kAMmGEh3I_-143" value="" style="rounded=0;whiteSpace=wrap;html=1;fillColor=#e5dc7b;" vertex="1" parent="1">
          <mxGeometry x="410" y="890" width="10" height="20" as="geometry" />
        </mxCell>
        <mxCell id="1H1YzH38t-kAMmGEh3I_-144" value="" style="rounded=0;whiteSpace=wrap;html=1;fillColor=#e5dc7b;" vertex="1" parent="1">
          <mxGeometry x="420" y="890" width="10" height="20" as="geometry" />
        </mxCell>
        <mxCell id="1H1YzH38t-kAMmGEh3I_-145" value="" style="rounded=0;whiteSpace=wrap;html=1;fillColor=#e5dc7b;" vertex="1" parent="1">
          <mxGeometry x="600" y="890" width="10" height="20" as="geometry" />
        </mxCell>
        <mxCell id="1H1YzH38t-kAMmGEh3I_-146" value="" style="rounded=0;whiteSpace=wrap;html=1;fillColor=#e5dc7b;" vertex="1" parent="1">
          <mxGeometry x="610" y="890" width="10" height="20" as="geometry" />
        </mxCell>
        <mxCell id="1H1YzH38t-kAMmGEh3I_-147" value="" style="rounded=0;whiteSpace=wrap;html=1;fillColor=#e5dc7b;" vertex="1" parent="1">
          <mxGeometry x="620" y="890" width="10" height="20" as="geometry" />
        </mxCell>
        <mxCell id="1H1YzH38t-kAMmGEh3I_-148" value="" style="rounded=0;whiteSpace=wrap;html=1;fillColor=#e5dc7b;" vertex="1" parent="1">
          <mxGeometry x="630" y="890" width="10" height="20" as="geometry" />
        </mxCell>
        <mxCell id="1H1YzH38t-kAMmGEh3I_-149" value="" style="rounded=0;whiteSpace=wrap;html=1;fillColor=#e5dc7b;" vertex="1" parent="1">
          <mxGeometry x="640" y="890" width="10" height="20" as="geometry" />
        </mxCell>
        <mxCell id="1H1YzH38t-kAMmGEh3I_-150" value="" style="rounded=0;whiteSpace=wrap;html=1;fillColor=#e5dc7b;" vertex="1" parent="1">
          <mxGeometry x="650" y="890" width="10" height="20" as="geometry" />
        </mxCell>
        <mxCell id="1H1YzH38t-kAMmGEh3I_-151" value="" style="rounded=0;whiteSpace=wrap;html=1;fillColor=#e5dc7b;" vertex="1" parent="1">
          <mxGeometry x="660" y="890" width="10" height="20" as="geometry" />
        </mxCell>
        <mxCell id="1H1YzH38t-kAMmGEh3I_-152" value="" style="rounded=0;whiteSpace=wrap;html=1;fillColor=#e5dc7b;" vertex="1" parent="1">
          <mxGeometry x="670" y="890" width="10" height="20" as="geometry" />
        </mxCell>
        <mxCell id="1H1YzH38t-kAMmGEh3I_-153" value="" style="rounded=0;whiteSpace=wrap;html=1;fillColor=#e5dc7b;" vertex="1" parent="1">
          <mxGeometry x="680" y="890" width="10" height="20" as="geometry" />
        </mxCell>
        <mxCell id="1H1YzH38t-kAMmGEh3I_-154" value="" style="rounded=0;whiteSpace=wrap;html=1;fillColor=#e5dc7b;" vertex="1" parent="1">
          <mxGeometry x="690" y="890" width="10" height="20" as="geometry" />
        </mxCell>
        <mxCell id="1H1YzH38t-kAMmGEh3I_-155" value="" style="rounded=0;whiteSpace=wrap;html=1;fillColor=#e5dc7b;" vertex="1" parent="1">
          <mxGeometry x="700" y="890" width="10" height="20" as="geometry" />
        </mxCell>
        <mxCell id="1H1YzH38t-kAMmGEh3I_-156" value="" style="rounded=0;whiteSpace=wrap;html=1;fillColor=#e5dc7b;" vertex="1" parent="1">
          <mxGeometry x="710" y="890" width="10" height="20" as="geometry" />
        </mxCell>
        <mxCell id="1H1YzH38t-kAMmGEh3I_-157" value="" style="rounded=0;whiteSpace=wrap;html=1;fillColor=#e5dc7b;" vertex="1" parent="1">
          <mxGeometry x="720" y="890" width="10" height="20" as="geometry" />
        </mxCell>
        <mxCell id="1H1YzH38t-kAMmGEh3I_-158" value="" style="rounded=0;whiteSpace=wrap;html=1;fillColor=#e5dc7b;" vertex="1" parent="1">
          <mxGeometry x="730" y="890" width="10" height="20" as="geometry" />
        </mxCell>
        <mxCell id="1H1YzH38t-kAMmGEh3I_-159" value="" style="rounded=0;whiteSpace=wrap;html=1;fillColor=#e5dc7b;" vertex="1" parent="1">
          <mxGeometry x="740" y="890" width="10" height="20" as="geometry" />
        </mxCell>
        <mxCell id="1H1YzH38t-kAMmGEh3I_-160" value="" style="rounded=0;whiteSpace=wrap;html=1;fillColor=#e5dc7b;" vertex="1" parent="1">
          <mxGeometry x="750" y="890" width="10" height="20" as="geometry" />
        </mxCell>
        <mxCell id="1H1YzH38t-kAMmGEh3I_-161" value="" style="rounded=0;whiteSpace=wrap;html=1;fillColor=#e5dc7b;" vertex="1" parent="1">
          <mxGeometry x="760" y="890" width="10" height="20" as="geometry" />
        </mxCell>
        <mxCell id="1H1YzH38t-kAMmGEh3I_-162" value="" style="rounded=0;whiteSpace=wrap;html=1;fillColor=#e5dc7b;" vertex="1" parent="1">
          <mxGeometry x="770" y="890" width="10" height="20" as="geometry" />
        </mxCell>
        <mxCell id="1H1YzH38t-kAMmGEh3I_-163" value="" style="rounded=0;whiteSpace=wrap;html=1;fillColor=#e5dc7b;" vertex="1" parent="1">
          <mxGeometry x="780" y="890" width="10" height="20" as="geometry" />
        </mxCell>
        <mxCell id="1H1YzH38t-kAMmGEh3I_-164" value="" style="rounded=0;whiteSpace=wrap;html=1;fillColor=#e5dc7b;" vertex="1" parent="1">
          <mxGeometry x="790" y="890" width="10" height="20" as="geometry" />
        </mxCell>
        <mxCell id="1H1YzH38t-kAMmGEh3I_-165" value="" style="rounded=0;whiteSpace=wrap;html=1;fillColor=#e5dc7b;" vertex="1" parent="1">
          <mxGeometry x="800" y="890" width="10" height="20" as="geometry" />
        </mxCell>
        <mxCell id="1H1YzH38t-kAMmGEh3I_-166" value="" style="rounded=0;whiteSpace=wrap;html=1;fillColor=#e5dc7b;" vertex="1" parent="1">
          <mxGeometry x="810" y="890" width="10" height="20" as="geometry" />
        </mxCell>
        <mxCell id="1H1YzH38t-kAMmGEh3I_-167" value="" style="rounded=0;whiteSpace=wrap;html=1;fillColor=#e5dc7b;" vertex="1" parent="1">
          <mxGeometry x="820" y="890" width="10" height="20" as="geometry" />
        </mxCell>
        <mxCell id="1H1YzH38t-kAMmGEh3I_-168" value="" style="rounded=0;whiteSpace=wrap;html=1;fillColor=#e5dc7b;" vertex="1" parent="1">
          <mxGeometry x="830" y="890" width="10" height="20" as="geometry" />
        </mxCell>
        <mxCell id="1H1YzH38t-kAMmGEh3I_-169" value="" style="rounded=0;whiteSpace=wrap;html=1;fillColor=#e5dc7b;" vertex="1" parent="1">
          <mxGeometry x="840" y="890" width="10" height="20" as="geometry" />
        </mxCell>
        <mxCell id="1H1YzH38t-kAMmGEh3I_-170" value="" style="rounded=0;whiteSpace=wrap;html=1;fillColor=#e5dc7b;" vertex="1" parent="1">
          <mxGeometry x="850" y="890" width="10" height="20" as="geometry" />
        </mxCell>
        <mxCell id="1H1YzH38t-kAMmGEh3I_-171" value="" style="rounded=0;whiteSpace=wrap;html=1;fillColor=#e5dc7b;" vertex="1" parent="1">
          <mxGeometry x="860" y="890" width="10" height="20" as="geometry" />
        </mxCell>
        <mxCell id="1H1YzH38t-kAMmGEh3I_-172" value="" style="rounded=0;whiteSpace=wrap;html=1;fillColor=#e5dc7b;" vertex="1" parent="1">
          <mxGeometry x="870" y="890" width="10" height="20" as="geometry" />
        </mxCell>
        <mxCell id="1H1YzH38t-kAMmGEh3I_-173" value="" style="rounded=0;whiteSpace=wrap;html=1;fillColor=#e5dc7b;" vertex="1" parent="1">
          <mxGeometry x="880" y="890" width="10" height="20" as="geometry" />
        </mxCell>
        <mxCell id="1H1YzH38t-kAMmGEh3I_-174" value="" style="rounded=0;whiteSpace=wrap;html=1;fillColor=#e5dc7b;" vertex="1" parent="1">
          <mxGeometry x="890" y="890" width="10" height="20" as="geometry" />
        </mxCell>
        <mxCell id="1H1YzH38t-kAMmGEh3I_-175" value="" style="rounded=0;whiteSpace=wrap;html=1;fillColor=#e5dc7b;" vertex="1" parent="1">
          <mxGeometry x="900" y="890" width="10" height="20" as="geometry" />
        </mxCell>
        <mxCell id="1H1YzH38t-kAMmGEh3I_-176" value="" style="rounded=0;whiteSpace=wrap;html=1;fillColor=#e5dc7b;" vertex="1" parent="1">
          <mxGeometry x="910" y="890" width="10" height="20" as="geometry" />
        </mxCell>
        <mxCell id="1H1YzH38t-kAMmGEh3I_-177" value="" style="rounded=0;whiteSpace=wrap;html=1;fillColor=#e5dc7b;" vertex="1" parent="1">
          <mxGeometry x="920" y="890" width="10" height="20" as="geometry" />
        </mxCell>
        <mxCell id="1H1YzH38t-kAMmGEh3I_-178" value="" style="rounded=0;whiteSpace=wrap;html=1;fillColor=#e5dc7b;" vertex="1" parent="1">
          <mxGeometry x="930" y="890" width="10" height="20" as="geometry" />
        </mxCell>
        <mxCell id="1H1YzH38t-kAMmGEh3I_-179" value="" style="rounded=0;whiteSpace=wrap;html=1;fillColor=#e5dc7b;" vertex="1" parent="1">
          <mxGeometry x="940" y="890" width="10" height="20" as="geometry" />
        </mxCell>
        <mxCell id="1H1YzH38t-kAMmGEh3I_-180" value="" style="rounded=0;whiteSpace=wrap;html=1;fillColor=#e5dc7b;" vertex="1" parent="1">
          <mxGeometry x="950" y="890" width="10" height="20" as="geometry" />
        </mxCell>
        <mxCell id="1H1YzH38t-kAMmGEh3I_-181" value="" style="rounded=0;whiteSpace=wrap;html=1;fillColor=#e5dc7b;" vertex="1" parent="1">
          <mxGeometry x="960" y="890" width="10" height="20" as="geometry" />
        </mxCell>
        <mxCell id="1H1YzH38t-kAMmGEh3I_-182" value="" style="rounded=0;whiteSpace=wrap;html=1;fillColor=#e5dc7b;" vertex="1" parent="1">
          <mxGeometry x="970" y="890" width="10" height="20" as="geometry" />
        </mxCell>
        <mxCell id="1H1YzH38t-kAMmGEh3I_-183" value="" style="rounded=0;whiteSpace=wrap;html=1;fillColor=#e5dc7b;" vertex="1" parent="1">
          <mxGeometry x="980" y="890" width="10" height="20" as="geometry" />
        </mxCell>
        <mxCell id="1H1YzH38t-kAMmGEh3I_-184" value="" style="shape=or;whiteSpace=wrap;html=1;direction=north;rotation=-180;" vertex="1" parent="1">
          <mxGeometry x="530" y="890" width="20" height="30" as="geometry" />
        </mxCell>
        <mxCell id="1H1YzH38t-kAMmGEh3I_-185" value="" style="rounded=0;whiteSpace=wrap;html=1;fillColor=#e5dc7b;" vertex="1" parent="1">
          <mxGeometry x="570" y="890" width="10" height="20" as="geometry" />
        </mxCell>
        <mxCell id="1H1YzH38t-kAMmGEh3I_-186" value="" style="rounded=0;whiteSpace=wrap;html=1;fillColor=#e5dc7b;" vertex="1" parent="1">
          <mxGeometry x="580" y="890" width="10" height="20" as="geometry" />
        </mxCell>
        <mxCell id="1H1YzH38t-kAMmGEh3I_-187" value="" style="rounded=0;whiteSpace=wrap;html=1;fillColor=#e5dc7b;" vertex="1" parent="1">
          <mxGeometry x="590" y="890" width="10" height="20" as="geometry" />
        </mxCell>
        <mxCell id="1H1YzH38t-kAMmGEh3I_-188" value="" style="rounded=0;whiteSpace=wrap;html=1;fillColor=#e5dc7b;" vertex="1" parent="1">
          <mxGeometry x="430" y="890" width="10" height="20" as="geometry" />
        </mxCell>
        <mxCell id="1H1YzH38t-kAMmGEh3I_-189" value="" style="rounded=0;whiteSpace=wrap;html=1;fillColor=#e5dc7b;" vertex="1" parent="1">
          <mxGeometry x="440" y="890" width="10" height="20" as="geometry" />
        </mxCell>
        <mxCell id="1H1YzH38t-kAMmGEh3I_-190" value="&lt;font style=&quot;font-size: 14px;&quot; color=&quot;#ababab&quot;&gt;&lt;b&gt;PMIC&lt;/b&gt;&lt;/font&gt;" style="rounded=0;whiteSpace=wrap;html=1;strokeColor=#454744;fillColor=#464646;direction=south;" vertex="1" parent="1">
          <mxGeometry x="490" y="970" width="75" height="50" as="geometry" />
        </mxCell>
        <mxCell id="1H1YzH38t-kAMmGEh3I_-191" value="" style="rounded=0;whiteSpace=wrap;html=1;fillColor=#e5dc7b;" vertex="1" parent="1">
          <mxGeometry x="450" y="890" width="10" height="20" as="geometry" />
        </mxCell>
        <mxCell id="1H1YzH38t-kAMmGEh3I_-192" value="" style="rounded=0;whiteSpace=wrap;html=1;fillColor=#e5dc7b;" vertex="1" parent="1">
          <mxGeometry x="460" y="890" width="10" height="20" as="geometry" />
        </mxCell>
        <mxCell id="1H1YzH38t-kAMmGEh3I_-193" value="" style="rounded=0;whiteSpace=wrap;html=1;fillColor=#e5dc7b;" vertex="1" parent="1">
          <mxGeometry x="470" y="890" width="10" height="20" as="geometry" />
        </mxCell>
        <mxCell id="1H1YzH38t-kAMmGEh3I_-194" value="" style="rounded=0;whiteSpace=wrap;html=1;fillColor=#e5dc7b;" vertex="1" parent="1">
          <mxGeometry x="480" y="890" width="10" height="20" as="geometry" />
        </mxCell>
        <mxCell id="1H1YzH38t-kAMmGEh3I_-195" value="" style="rounded=0;whiteSpace=wrap;html=1;fillColor=#e5dc7b;" vertex="1" parent="1">
          <mxGeometry x="490" y="890" width="10" height="20" as="geometry" />
        </mxCell>
        <mxCell id="1H1YzH38t-kAMmGEh3I_-196" value="" style="rounded=0;whiteSpace=wrap;html=1;fillColor=#e5dc7b;" vertex="1" parent="1">
          <mxGeometry x="500" y="890" width="10" height="20" as="geometry" />
        </mxCell>
        <mxCell id="1H1YzH38t-kAMmGEh3I_-197" value="" style="rounded=0;whiteSpace=wrap;html=1;fillColor=#e5dc7b;" vertex="1" parent="1">
          <mxGeometry x="510" y="890" width="10" height="20" as="geometry" />
        </mxCell>
        <mxCell id="1H1YzH38t-kAMmGEh3I_-198" value="&lt;font style=&quot;font-size: 14px;&quot; color=&quot;#ababab&quot;&gt;DQ&lt;/font&gt;&lt;div style=&quot;font-size: 14px;&quot;&gt;&lt;font color=&quot;#ababab&quot;&gt;x8&lt;/font&gt;&lt;/div&gt;" style="rounded=0;whiteSpace=wrap;html=1;strokeColor=#454744;fillColor=#464646;" vertex="1" parent="1">
          <mxGeometry x="65" y="950" width="60" height="80" as="geometry" />
        </mxCell>
        <mxCell id="1H1YzH38t-kAMmGEh3I_-199" value="&lt;font style=&quot;font-size: 14px;&quot; color=&quot;#ababab&quot;&gt;DQ&lt;/font&gt;&lt;div style=&quot;font-size: 14px;&quot;&gt;&lt;font color=&quot;#ababab&quot;&gt;x8&lt;/font&gt;&lt;/div&gt;" style="rounded=0;whiteSpace=wrap;html=1;strokeColor=#454744;fillColor=#464646;" vertex="1" parent="1">
          <mxGeometry x="145" y="950" width="60" height="80" as="geometry" />
        </mxCell>
        <mxCell id="1H1YzH38t-kAMmGEh3I_-200" value="&lt;font style=&quot;font-size: 14px;&quot; color=&quot;#ababab&quot;&gt;DQ&lt;/font&gt;&lt;div style=&quot;font-size: 14px;&quot;&gt;&lt;font color=&quot;#ababab&quot;&gt;x8&lt;/font&gt;&lt;/div&gt;" style="rounded=0;whiteSpace=wrap;html=1;strokeColor=#454744;fillColor=#464646;" vertex="1" parent="1">
          <mxGeometry x="225" y="950" width="60" height="80" as="geometry" />
        </mxCell>
        <mxCell id="1H1YzH38t-kAMmGEh3I_-201" value="&lt;font style=&quot;font-size: 14px;&quot; color=&quot;#ababab&quot;&gt;DQ&lt;/font&gt;&lt;div style=&quot;font-size: 14px;&quot;&gt;&lt;font color=&quot;#ababab&quot;&gt;x8&lt;/font&gt;&lt;/div&gt;" style="rounded=0;whiteSpace=wrap;html=1;strokeColor=#454744;fillColor=#464646;" vertex="1" parent="1">
          <mxGeometry x="305" y="950" width="60" height="80" as="geometry" />
        </mxCell>
        <mxCell id="1H1YzH38t-kAMmGEh3I_-202" value="&lt;font style=&quot;font-size: 14px;&quot; color=&quot;#ababab&quot;&gt;ECC&lt;/font&gt;&lt;div style=&quot;font-size: 14px;&quot;&gt;&lt;font color=&quot;#ababab&quot;&gt;x8&lt;/font&gt;&lt;/div&gt;" style="rounded=0;whiteSpace=wrap;html=1;strokeColor=#454744;fillColor=#464646;" vertex="1" parent="1">
          <mxGeometry x="385" y="950" width="60" height="80" as="geometry" />
        </mxCell>
        <mxCell id="1H1YzH38t-kAMmGEh3I_-203" value="&lt;font style=&quot;font-size: 14px;&quot; color=&quot;#ababab&quot;&gt;ECC&lt;/font&gt;&lt;div style=&quot;font-size: 14px;&quot;&gt;&lt;font color=&quot;#ababab&quot;&gt;x8&lt;/font&gt;&lt;/div&gt;" style="rounded=0;whiteSpace=wrap;html=1;strokeColor=#454744;fillColor=#464646;" vertex="1" parent="1">
          <mxGeometry x="605" y="950" width="60" height="80" as="geometry" />
        </mxCell>
        <mxCell id="1H1YzH38t-kAMmGEh3I_-204" value="&lt;font style=&quot;font-size: 14px;&quot; color=&quot;#ababab&quot;&gt;DQ&lt;/font&gt;&lt;div style=&quot;font-size: 14px;&quot;&gt;&lt;font color=&quot;#ababab&quot;&gt;x8&lt;/font&gt;&lt;/div&gt;" style="rounded=0;whiteSpace=wrap;html=1;strokeColor=#454744;fillColor=#464646;" vertex="1" parent="1">
          <mxGeometry x="685" y="950" width="60" height="80" as="geometry" />
        </mxCell>
        <mxCell id="1H1YzH38t-kAMmGEh3I_-205" value="&lt;font style=&quot;font-size: 14px;&quot; color=&quot;#ababab&quot;&gt;DQ&lt;/font&gt;&lt;div style=&quot;font-size: 14px;&quot;&gt;&lt;font color=&quot;#ababab&quot;&gt;x8&lt;/font&gt;&lt;/div&gt;" style="rounded=0;whiteSpace=wrap;html=1;strokeColor=#454744;fillColor=#464646;" vertex="1" parent="1">
          <mxGeometry x="765" y="950" width="60" height="80" as="geometry" />
        </mxCell>
        <mxCell id="1H1YzH38t-kAMmGEh3I_-206" value="&lt;font style=&quot;font-size: 14px;&quot; color=&quot;#ababab&quot;&gt;DQ&lt;/font&gt;&lt;div style=&quot;font-size: 14px;&quot;&gt;&lt;font color=&quot;#ababab&quot;&gt;x8&lt;/font&gt;&lt;/div&gt;" style="rounded=0;whiteSpace=wrap;html=1;strokeColor=#454744;fillColor=#464646;" vertex="1" parent="1">
          <mxGeometry x="845" y="950" width="60" height="80" as="geometry" />
        </mxCell>
        <mxCell id="1H1YzH38t-kAMmGEh3I_-207" value="&lt;font style=&quot;font-size: 14px;&quot; color=&quot;#ababab&quot;&gt;DQ&lt;/font&gt;&lt;div style=&quot;font-size: 14px;&quot;&gt;&lt;font color=&quot;#ababab&quot;&gt;x8&lt;/font&gt;&lt;/div&gt;" style="rounded=0;whiteSpace=wrap;html=1;strokeColor=#454744;fillColor=#464646;" vertex="1" parent="1">
          <mxGeometry x="925" y="950" width="60" height="80" as="geometry" />
        </mxCell>
        <mxCell id="1H1YzH38t-kAMmGEh3I_-208" value="&lt;font style=&quot;font-size: 14px;&quot; color=&quot;#ababab&quot;&gt;&lt;b&gt;SPD&lt;/b&gt;&lt;/font&gt;&lt;div&gt;&lt;font color=&quot;#ababab&quot;&gt;&lt;span style=&quot;font-size: 14px;&quot;&gt;&lt;b&gt;HUB&lt;/b&gt;&lt;/span&gt;&lt;/font&gt;&lt;/div&gt;" style="rounded=0;whiteSpace=wrap;html=1;strokeColor=#454744;fillColor=#464646;direction=south;" vertex="1" parent="1">
          <mxGeometry x="502.5" y="1024" width="50" height="40" as="geometry" />
        </mxCell>
        <mxCell id="1H1YzH38t-kAMmGEh3I_-209" value="" style="rounded=0;whiteSpace=wrap;html=1;strokeColor=#454744;fillColor=#464646;direction=south;" vertex="1" parent="1">
          <mxGeometry x="570" y="970" width="10" height="10" as="geometry" />
        </mxCell>
        <mxCell id="1H1YzH38t-kAMmGEh3I_-210" value="" style="rounded=0;whiteSpace=wrap;html=1;strokeColor=#454744;fillColor=#464646;direction=south;" vertex="1" parent="1">
          <mxGeometry x="570" y="982" width="10" height="10" as="geometry" />
        </mxCell>
        <mxCell id="1H1YzH38t-kAMmGEh3I_-211" value="" style="rounded=0;whiteSpace=wrap;html=1;strokeColor=#454744;fillColor=#464646;direction=south;" vertex="1" parent="1">
          <mxGeometry x="570" y="994" width="10" height="18" as="geometry" />
        </mxCell>
        <mxCell id="1H1YzH38t-kAMmGEh3I_-212" value="" style="rounded=0;whiteSpace=wrap;html=1;strokeColor=#454744;fillColor=#464646;direction=south;" vertex="1" parent="1">
          <mxGeometry x="583" y="976" width="10" height="10" as="geometry" />
        </mxCell>
        <mxCell id="1H1YzH38t-kAMmGEh3I_-213" value="" style="rounded=0;whiteSpace=wrap;html=1;strokeColor=#454744;fillColor=#464646;direction=south;" vertex="1" parent="1">
          <mxGeometry x="583" y="989" width="10" height="10" as="geometry" />
        </mxCell>
        <mxCell id="1H1YzH38t-kAMmGEh3I_-214" value="" style="rounded=0;whiteSpace=wrap;html=1;strokeColor=#454744;fillColor=#464646;direction=south;" vertex="1" parent="1">
          <mxGeometry x="460" y="998" width="10" height="18" as="geometry" />
        </mxCell>
        <mxCell id="1H1YzH38t-kAMmGEh3I_-215" value="" style="rounded=0;whiteSpace=wrap;html=1;strokeColor=#454744;fillColor=#464646;direction=south;" vertex="1" parent="1">
          <mxGeometry x="473" y="976" width="10" height="10" as="geometry" />
        </mxCell>
        <mxCell id="1H1YzH38t-kAMmGEh3I_-216" value="" style="rounded=0;whiteSpace=wrap;html=1;strokeColor=#454744;fillColor=#464646;direction=south;" vertex="1" parent="1">
          <mxGeometry x="473" y="989" width="13" height="11" as="geometry" />
        </mxCell>
        <mxCell id="1H1YzH38t-kAMmGEh3I_-217" value="" style="rounded=0;whiteSpace=wrap;html=1;strokeColor=#454744;fillColor=#464646;direction=south;" vertex="1" parent="1">
          <mxGeometry x="473" y="1003" width="13" height="11" as="geometry" />
        </mxCell>
        <mxCell id="1H1YzH38t-kAMmGEh3I_-218" value="" style="rounded=0;whiteSpace=wrap;html=1;strokeColor=#454744;fillColor=#464646;direction=south;" vertex="1" parent="1">
          <mxGeometry x="460" y="977" width="10" height="18" as="geometry" />
        </mxCell>
        <mxCell id="1H1YzH38t-kAMmGEh3I_-219" value="DDR5 RDIMM FRONT" style="text;html=1;align=center;verticalAlign=middle;whiteSpace=wrap;rounded=0;fontStyle=1" vertex="1" parent="1">
          <mxGeometry x="446" y="663.5" width="155" height="30" as="geometry" />
        </mxCell>
        <mxCell id="1H1YzH38t-kAMmGEh3I_-220" value="DDR5 RDIMM BACK" style="text;html=1;align=center;verticalAlign=middle;whiteSpace=wrap;rounded=0;fontStyle=1" vertex="1" parent="1">
          <mxGeometry x="438.5" y="1065.5" width="155" height="30" as="geometry" />
        </mxCell>
        <mxCell id="1H1YzH38t-kAMmGEh3I_-221" value="&lt;font color=&quot;#ababab&quot;&gt;&lt;span&gt;TS1&lt;/span&gt;&lt;/font&gt;" style="rounded=0;whiteSpace=wrap;html=1;strokeColor=#454744;fillColor=#464646;fontSize=8;" vertex="1" parent="1">
          <mxGeometry x="903" y="765" width="15" height="10" as="geometry" />
        </mxCell>
      </root>
    </mxGraphModel>
  </diagram>
</mxfile>
